# xmcd
#
# Track frame offsets: 
#        150
#        11955
#        25950
#        35850
#        50487
#        60525
#        78625
#        90850
#        101697
#        113075
#
# Disc length: 1688 seconds
#
# Revision: 3
# Processed by: cddbd v1.5.2PL0 Copyright (c) Steve Scherf et al.
# Submitted via: ExactAudioCopyFreeDBPlugin 1.0
#
DISCID=7d06960a
DTITLE=Various Artist - Ladies of Country Keep Shinin'
DYEAR=1900
DGENRE=Country
TTITLE0=Donna Fargo - The Happiest Girl In The Whole U.S.A.
TTITLE1=Barbara Fairchild - Teddy Bear
TTITLE2=Lynn Anderson - What A man My Man is
TTITLE3=Anne Murray - David's Song
TTITLE4=Barbara Mandrell - Please Reliease Me
TTITLE5=Jeanne Pruett - Temporarily Yours
TTITLE6=Dolly Parton - Makin' Believe
TTITLE7=Sandy Posey - Single Girl
TTITLE8=Kitty Wells - It Wasn't God Who Made Honky tonk Angels
TTITLE9=Patsy Cline - Life's Railway To Heaven
EXTD=
EXTT0=
EXTT1=
EXTT2=
EXTT3=
EXTT4=
EXTT5=
EXTT6=
EXTT7=
EXTT8=
EXTT9=
PLAYORDER=
